<svg width="168" height="49" viewBox="0 0 168 49" fill="none" xmlns="http://www.w3.org/2000/svg">
<g filter="url(#filter0_d_63_287)">
<path d="M62.856 30V15.624H57.264V13.08H71.544V15.624H65.952V30H62.856ZM71.5924 30V20.976C71.5924 20.464 71.5764 19.944 71.5444 19.416C71.5284 18.888 71.4884 18.376 71.4244 17.88H74.3284L74.6644 21.192H74.1844C74.3444 20.392 74.6084 19.728 74.9764 19.2C75.3604 18.672 75.8244 18.28 76.3684 18.024C76.9124 17.768 77.5044 17.64 78.1444 17.64C78.4324 17.64 78.6644 17.656 78.8404 17.688C79.0164 17.704 79.1924 17.744 79.3684 17.808L79.3444 20.448C79.0404 20.32 78.7764 20.24 78.5524 20.208C78.3444 20.176 78.0804 20.16 77.7604 20.16C77.0724 20.16 76.4884 20.304 76.0084 20.592C75.5444 20.88 75.1924 21.28 74.9524 21.792C74.7284 22.304 74.6164 22.888 74.6164 23.544V30H71.5924ZM85.6011 30.24C84.5451 30.24 83.6171 29.992 82.8171 29.496C82.0171 28.984 81.3931 28.256 80.9451 27.312C80.4971 26.368 80.2731 25.24 80.2731 23.928C80.2731 22.616 80.4971 21.496 80.9451 20.568C81.3931 19.624 82.0171 18.904 82.8171 18.408C83.6171 17.896 84.5451 17.64 85.6011 17.64C86.6251 17.64 87.5211 17.896 88.2891 18.408C89.0731 18.904 89.5931 19.576 89.8491 20.424H89.5851L89.8491 17.88H92.7291C92.6811 18.376 92.6331 18.88 92.5851 19.392C92.5531 19.904 92.5371 20.408 92.5371 20.904V30H89.5611L89.5371 27.504H89.8251C89.5691 28.336 89.0491 29 88.2651 29.496C87.4811 29.992 86.5931 30.24 85.6011 30.24ZM86.4411 27.936C87.3851 27.936 88.1451 27.608 88.7211 26.952C89.2971 26.28 89.5851 25.272 89.5851 23.928C89.5851 22.584 89.2971 21.584 88.7211 20.928C88.1451 20.272 87.3851 19.944 86.4411 19.944C85.4971 19.944 84.7371 20.272 84.1611 20.928C83.5851 21.584 83.2971 22.584 83.2971 23.928C83.2971 25.272 83.5771 26.28 84.1371 26.952C84.7131 27.608 85.4811 27.936 86.4411 27.936ZM96.6199 30V20.136H94.2919V17.88H97.4599L96.6199 18.648V16.8C96.6199 15.296 97.0039 14.16 97.7719 13.392C98.5559 12.624 99.6999 12.24 101.204 12.24C101.556 12.24 101.924 12.264 102.308 12.312C102.708 12.36 103.052 12.448 103.34 12.576V14.928C103.132 14.848 102.884 14.784 102.596 14.736C102.308 14.688 102.028 14.664 101.756 14.664C101.34 14.664 100.964 14.744 100.628 14.904C100.308 15.064 100.052 15.312 99.8599 15.648C99.6839 15.968 99.5959 16.4 99.5959 16.944V18.408L99.1639 17.88H102.788V20.136H99.6199V30H96.6199ZM109.203 30.24C108.147 30.24 107.219 29.992 106.419 29.496C105.619 28.984 104.995 28.256 104.547 27.312C104.099 26.368 103.875 25.24 103.875 23.928C103.875 22.616 104.099 21.496 104.547 20.568C104.995 19.624 105.619 18.904 106.419 18.408C107.219 17.896 108.147 17.64 109.203 17.64C110.227 17.64 111.123 17.896 111.891 18.408C112.675 18.904 113.195 19.576 113.451 20.424H113.187L113.451 17.88H116.331C116.283 18.376 116.235 18.88 116.187 19.392C116.155 19.904 116.139 20.408 116.139 20.904V30H113.163L113.139 27.504H113.427C113.171 28.336 112.651 29 111.867 29.496C111.083 29.992 110.195 30.24 109.203 30.24ZM110.043 27.936C110.987 27.936 111.747 27.608 112.323 26.952C112.899 26.28 113.187 25.272 113.187 23.928C113.187 22.584 112.899 21.584 112.323 20.928C111.747 20.272 110.987 19.944 110.043 19.944C109.099 19.944 108.339 20.272 107.763 20.928C107.187 21.584 106.899 22.584 106.899 23.928C106.899 25.272 107.179 26.28 107.739 26.952C108.315 27.608 109.083 27.936 110.043 27.936ZM119.405 30V12.336H122.405V30H119.405ZM131.279 35.376C130.159 35.376 129.143 35.256 128.231 35.016C127.335 34.776 126.535 34.408 125.831 33.912L126.479 31.752C126.943 32.056 127.423 32.304 127.919 32.496C128.415 32.688 128.927 32.832 129.455 32.928C129.983 33.024 130.519 33.072 131.063 33.072C132.183 33.072 133.015 32.792 133.559 32.232C134.119 31.688 134.399 30.904 134.399 29.88V26.976H134.639C134.383 27.808 133.863 28.472 133.079 28.968C132.311 29.464 131.423 29.712 130.415 29.712C129.327 29.712 128.375 29.472 127.559 28.992C126.759 28.496 126.135 27.792 125.687 26.88C125.239 25.968 125.015 24.896 125.015 23.664C125.015 22.432 125.239 21.368 125.687 20.472C126.135 19.56 126.759 18.864 127.559 18.384C128.375 17.888 129.327 17.64 130.415 17.64C131.439 17.64 132.327 17.888 133.079 18.384C133.847 18.864 134.359 19.52 134.615 20.352L134.399 20.208L134.639 17.88H137.543C137.479 18.376 137.431 18.88 137.399 19.392C137.367 19.904 137.351 20.408 137.351 20.904V29.52C137.351 31.424 136.831 32.872 135.791 33.864C134.767 34.872 133.263 35.376 131.279 35.376ZM131.231 27.408C132.191 27.408 132.951 27.088 133.511 26.448C134.087 25.792 134.375 24.864 134.375 23.664C134.375 22.464 134.087 21.544 133.511 20.904C132.951 20.264 132.191 19.944 131.231 19.944C130.255 19.944 129.479 20.264 128.903 20.904C128.327 21.544 128.039 22.464 128.039 23.664C128.039 24.864 128.327 25.792 128.903 26.448C129.479 27.088 130.255 27.408 131.231 27.408ZM145.273 30.24C144.217 30.24 143.289 29.992 142.489 29.496C141.689 28.984 141.065 28.256 140.617 27.312C140.169 26.368 139.945 25.24 139.945 23.928C139.945 22.616 140.169 21.496 140.617 20.568C141.065 19.624 141.689 18.904 142.489 18.408C143.289 17.896 144.217 17.64 145.273 17.64C146.297 17.64 147.193 17.896 147.961 18.408C148.745 18.904 149.265 19.576 149.521 20.424H149.257L149.521 17.88H152.401C152.353 18.376 152.305 18.88 152.257 19.392C152.225 19.904 152.209 20.408 152.209 20.904V30H149.233L149.209 27.504H149.497C149.241 28.336 148.721 29 147.937 29.496C147.153 29.992 146.265 30.24 145.273 30.24ZM146.113 27.936C147.057 27.936 147.817 27.608 148.393 26.952C148.969 26.28 149.257 25.272 149.257 23.928C149.257 22.584 148.969 21.584 148.393 20.928C147.817 20.272 147.057 19.944 146.113 19.944C145.169 19.944 144.409 20.272 143.833 20.928C143.257 21.584 142.969 22.584 142.969 23.928C142.969 25.272 143.249 26.28 143.809 26.952C144.385 27.608 145.153 27.936 146.113 27.936ZM155.452 30V20.976C155.452 20.464 155.436 19.944 155.404 19.416C155.388 18.888 155.348 18.376 155.284 17.88H158.188L158.524 21.192H158.044C158.204 20.392 158.468 19.728 158.836 19.2C159.22 18.672 159.684 18.28 160.228 18.024C160.772 17.768 161.364 17.64 162.004 17.64C162.292 17.64 162.524 17.656 162.7 17.688C162.876 17.704 163.052 17.744 163.228 17.808L163.204 20.448C162.9 20.32 162.636 20.24 162.412 20.208C162.204 20.176 161.94 20.16 161.62 20.16C160.932 20.16 160.348 20.304 159.868 20.592C159.404 20.88 159.052 21.28 158.812 21.792C158.588 22.304 158.476 22.888 158.476 23.544V30H155.452Z" fill="#233348"/>
<circle cx="24.5" cy="20.5" r="20.5" fill="#458FF6"/>
<path d="M23.344 15.244H17.312V12.488H32.782V15.244H26.724V31H23.344V15.244Z" fill="white"/>
</g>
<defs>
<filter id="filter0_d_63_287" x="0" y="0" width="167.228" height="49" filterUnits="userSpaceOnUse" color-interpolation-filters="sRGB">
<feFlood flood-opacity="0" result="BackgroundImageFix"/>
<feColorMatrix in="SourceAlpha" type="matrix" values="0 0 0 0 0 0 0 0 0 0 0 0 0 0 0 0 0 0 127 0" result="hardAlpha"/>
<feOffset dy="4"/>
<feGaussianBlur stdDeviation="2"/>
<feComposite in2="hardAlpha" operator="out"/>
<feColorMatrix type="matrix" values="0 0 0 0 0 0 0 0 0 0 0 0 0 0 0 0 0 0 0.25 0"/>
<feBlend mode="normal" in2="BackgroundImageFix" result="effect1_dropShadow_63_287"/>
<feBlend mode="normal" in="SourceGraphic" in2="effect1_dropShadow_63_287" result="shape"/>
</filter>
</defs>
</svg>
